<svg width="16" height="16" viewBox="0 0 16 16" fill="none" xmlns="http://www.w3.org/2000/svg">
<path d="M9.08767 8.00003L13.9285 3.15971C14.229 2.85922 14.229 2.37203 13.9285 2.07156C13.628 1.77107 13.1408 1.77107 12.8404 2.07156L8.00003 6.91238L3.15971 2.07156C2.85922 1.77107 2.37203 1.77107 2.07156 2.07156C1.77109 2.37205 1.77107 2.85925 2.07156 3.15971L6.91238 8.00003L2.07156 12.8404C1.77107 13.1409 1.77107 13.628 2.07156 13.9285C2.37205 14.229 2.85925 14.229 3.15971 13.9285L8.00003 9.08767L12.8403 13.9285C13.1408 14.229 13.628 14.229 13.9285 13.9285C14.229 13.628 14.229 13.1408 13.9285 12.8404L9.08767 8.00003Z" fill="#838BA3"/>
</svg>
